PathFileType	4	(X/Y/Z)	C:\Users\Willi\Documents\Github\OpenSimMatlabBasic\ExampleData\Trials\dynamic06\marker_experimental.trc
DataRate	CameraRate	NumFrames	NumMarkers	Units	OrigDataRate	OrigDataStartFrame	OrigNumFrames
150.000000	150.000000	2	179	mm	150.000000	41	330
Frame#	Time	LFHD			LBHD			RFHD			RBHD			C7			T10			CLAV			STRN			RBAK			LSHO			LUPA			LELB			LFRA			LWRB			LWRA			LFIN			RSHO			RUPA			RELB			RFRA			RWRB			RFIN			SACR			LASI			RASI			LT1			LT2			LT3			LS1			LS2			LS3			LHEE			LTOE			RT1			RT2			RT3			RS1			RS2			RS3			RHEE			RTOE			SACO			SACA			SACL			SACP			RWRA			LM5D			RM5D			LKNE			RKNE			LANK			RANK			LKJC			RKJC			LAJC			RAJC			LTHI			RTHI			LTIB			RTIB			P_ForcePlate1			P_ForcePlate2			P_ForcePlate3			funktRKJC			funktLKJC			funktRHIP			funktLHIP			LHJC			RHJC			LKNEshank			RKNEshank			LKJCshank			RKJCshank			LHF			COP_FP1			VECTIP_FP1			RawCentreFP1			COP_FP2			VECTIP_FP2			RawCentreFP2			COP_FP3			VECTIP_FP3			RawCentreFP3			LPelvisAngles			RPelvisAngles			LFootProgressAngles			RFootProgressAngles			LHipAngles			RHipAngles			LKneeAngles			RKneeAngles			LAnkleAngles			RAnkleAngles			LFFootAngles			RFFootAngles			LAbsAnkleAngle			RAbsAnkleAngle			RNeckAngles			LNeckAngles			RSpineAngles			LSpineAngles			LShoulderAngles			LElbowAngles			LWristAngles			RShoulderAngles			RElbowAngles			RWristAngles			RThoraxAngles			LThoraxAngles			RHeadAngles			LHeadAngles			LHipPower			LKneePower			LAnklePower			RHipPower			RKneePower			RAnklePower			LWaistPower			RWaistPower			LNeckPower			RNeckPower			LShoulderPower			RShoulderPower			LElbowPower			RElbowPower			LWristPower			RWristPower			F_ForcePlate1			F_ForcePlate2			F_ForcePlate3			LHipForce			RHipForce			LKneeForce			RKneeForce			LAnkleForce			RAnkleForce			LNormalisedGRF			RNormalisedGRF			LGroundReactionForce			RGroundReactionForce			LGRF			RGRF			LWaistForce			RWaistForce			LNeckForce			RNeckForce			LShoulderForce			RShoulderForce			LElbowForce			RElbowForce			LWristForce			RWristForce			Force_FP1			RawForceFP1			Force_FP2			RawForceFP2			Force_FP3			RawForceFP3			LHipMoment			RHipMoment			LKneeMoment			RKneeMoment			LAnkleMoment			RAnkleMoment			LGroundReactionMoment			RGroundReactionMoment			LWaistMoment			RWaistMoment			LNeckMoment			RNeckMoment			LShoulderMoment			RShoulderMoment			LElbowMoment			RElbowMoment			LWristMoment			RWristMoment			RawMomentFP1			RawMomentFP2			RawMomentFP3			
		X1	Y1	Z1	X2	Y2	Z2	X3	Y3	Z3	X4	Y4	Z4	X5	Y5	Z5	X6	Y6	Z6	X7	Y7	Z7	X8	Y8	Z8	X9	Y9	Z9	X10	Y10	Z10	X11	Y11	Z11	X12	Y12	Z12	X13	Y13	Z13	X14	Y14	Z14	X15	Y15	Z15	X16	Y16	Z16	X17	Y17	Z17	X18	Y18	Z18	X19	Y19	Z19	X20	Y20	Z20	X21	Y21	Z21	X22	Y22	Z22	X23	Y23	Z23	X24	Y24	Z24	X25	Y25	Z25	X26	Y26	Z26	X27	Y27	Z27	X28	Y28	Z28	X29	Y29	Z29	X30	Y30	Z30	X31	Y31	Z31	X32	Y32	Z32	X33	Y33	Z33	X34	Y34	Z34	X35	Y35	Z35	X36	Y36	Z36	X37	Y37	Z37	X38	Y38	Z38	X39	Y39	Z39	X40	Y40	Z40	X41	Y41	Z41	X42	Y42	Z42	X43	Y43	Z43	X44	Y44	Z44	X45	Y45	Z45	X46	Y46	Z46	X47	Y47	Z47	X48	Y48	Z48	X49	Y49	Z49	X50	Y50	Z50	X51	Y51	Z51	X52	Y52	Z52	X53	Y53	Z53	X54	Y54	Z54	X55	Y55	Z55	X56	Y56	Z56	X57	Y57	Z57	X58	Y58	Z58	X59	Y59	Z59	X60	Y60	Z60	X61	Y61	Z61	X62	Y62	Z62	X63	Y63	Z63	X64	Y64	Z64	X65	Y65	Z65	X66	Y66	Z66	X67	Y67	Z67	X68	Y68	Z68	X69	Y69	Z69	X70	Y70	Z70	X71	Y71	Z71	X72	Y72	Z72	X73	Y73	Z73	X74	Y74	Z74	X75	Y75	Z75	X76	Y76	Z76	X77	Y77	Z77	X78	Y78	Z78	X79	Y79	Z79	X80	Y80	Z80	X81	Y81	Z81	X82	Y82	Z82	X83	Y83	Z83	X84	Y84	Z84	X85	Y85	Z85	X86	Y86	Z86	X87	Y87	Z87	X88	Y88	Z88	X89	Y89	Z89	X90	Y90	Z90	X91	Y91	Z91	X92	Y92	Z92	X93	Y93	Z93	X94	Y94	Z94	X95	Y95	Z95	X96	Y96	Z96	X97	Y97	Z97	X98	Y98	Z98	X99	Y99	Z99	X100	Y100	Z100	X101	Y101	Z101	X102	Y102	Z102	X103	Y103	Z103	X104	Y104	Z104	X105	Y105	Z105	X106	Y106	Z106	X107	Y107	Z107	X108	Y108	Z108	X109	Y109	Z109	X110	Y110	Z110	X111	Y111	Z111	X112	Y112	Z112	X113	Y113	Z113	X114	Y114	Z114	X115	Y115	Z115	X116	Y116	Z116	X117	Y117	Z117	X118	Y118	Z118	X119	Y119	Z119	X120	Y120	Z120	X121	Y121	Z121	X122	Y122	Z122	X123	Y123	Z123	X124	Y124	Z124	X125	Y125	Z125	X126	Y126	Z126	X127	Y127	Z127	X128	Y128	Z128	X129	Y129	Z129	X130	Y130	Z130	X131	Y131	Z131	X132	Y132	Z132	X133	Y133	Z133	X134	Y134	Z134	X135	Y135	Z135	X136	Y136	Z136	X137	Y137	Z137	X138	Y138	Z138	X139	Y139	Z139	X140	Y140	Z140	X141	Y141	Z141	X142	Y142	Z142	X143	Y143	Z143	X144	Y144	Z144	X145	Y145	Z145	X146	Y146	Z146	X147	Y147	Z147	X148	Y148	Z148	X149	Y149	Z149	X150	Y150	Z150	X151	Y151	Z151	X152	Y152	Z152	X153	Y153	Z153	X154	Y154	Z154	X155	Y155	Z155	X156	Y156	Z156	X157	Y157	Z157	X158	Y158	Z158	X159	Y159	Z159	X160	Y160	Z160	X161	Y161	Z161	X162	Y162	Z162	X163	Y163	Z163	X164	Y164	Z164	X165	Y165	Z165	X166	Y166	Z166	X167	Y167	Z167	X168	Y168	Z168	X169	Y169	Z169	X170	Y170	Z170	X171	Y171	Z171	X172	Y172	Z172	X173	Y173	Z173	X174	Y174	Z174	X175	Y175	Z175	X176	Y176	Z176	X177	Y177	Z177	X178	Y178	Z178	X179	Y179	Z179	

42	0.2733333333333334	-918.4954223632812	1260.158447265625	307.4563598632811	-1044.219482421875	1249.057495117188	275.1158142089842	-921.5758056640625	1262.799926757812	421.8694763183592	-1058.847900390625	1262.302734375	441.4464111328123	-1094.48193359375	1114.478393554688	361.3109130859373	-1123.960083007812	965.2952270507812	360.219024658203	-979.4783935546875	1069.714233398438	355.3226013183592	-952.9251708984375	1014.285278320312	352.1793212890623	-1120.024291992188	1037.625854492188	443.9817504882811	-1050.378051757812	1095.02197265625	222.6794586181639	-1071.664428710938	912.6961669921875	141.5825805664061	-1060.382934570312	854.6132202148438	109.15177154541	-1027.809814453125	793.91845703125	73.41049957275374	-956.5272216796875	701.5371704101562	31.23265838623031	-893.4330444335938	727.691650390625	52.83837509155259	-877.9346313476562	693.2003173828125	0.7812079191206387	-1046.571655273438	1081.283447265625	495.1434326171873	-1091.658813476562	984.9102172851562	536.9276733398435	-1133.276245117188	837.3662719726562	570.9609374999999	-1063.816040039062	701.1378784179688	571.1325073242186	-1041.601196289062	666.3709106445312	570.0608520507811	-960.5899658203126	632.4585571289062	582.0751953124999	-1120.73193359375	767.8223876953125	368.0356140136717	-1002.799560546875	724.61962890625	242.7135467529295	-975.1484375000001	727.1473388671875	468.1996154785155	-1080.68505859375	536.7582397460938	215.2100372314451	-1158.450317382812	443.2705078125	235.2981719970701	-1093.922119140625	436.2325134277344	226.4266357421873	-1257.508544921875	254.6418609619141	230.7290802001951	-1376.307250976562	241.01318359375	260.6861877441405	-1261.149291992188	157.005615234375	238.8420257568358	-1396.287475585938	128.5971069335938	317.2802124023436	-1275.933715820312	48.20164871215822	277.8852233886717	-945.4226074218751	533.1104125976562	492.3258972167967	-949.7164306640626	418.2554626464844	473.7457275390624	-904.2239990234376	441.0369262695313	471.2250366210936	-890.8629760742189	228.6856994628907	475.4832153320311	-952.2723388671875	122.8279342651367	455.9636840820311	-815.3364868164062	167.4323425292969	460.765655517578	-886.5348510742188	39.38781738281252	388.9554443359374	-738.4258422851562	57.5329513549805	431.0367431640624	-1085.498413085938	756.720458984375	366.9475708007811	-1080.672119140625	755.1786499023438	366.3730163574217	-1086.119018554688	756.6637573242188	361.8868103027342	-1070.259765625	805.3203125	364.5342712402342	-977.6139526367189	701.5968017578125	560.7150268554686	-1304.223754882812	29.7388153076172	250.2500762939451	-757.0324096679688	36.96567153930667	456.8048706054686	-1132.637817382812	378.4258728027344	239.8809356689451	-895.5777587890625	384.9256896972656	458.1510620117186	-1369.671997070312	115.3409805297852	269.5936889648436	-854.4990844726562	57.64210510253909	439.3192138671874	-1129.431762695312	371.9619445800781	291.625518798828	-905.3505249023438	379.8450317382812	406.5458068847655	-1348.30810546875	112.3050537109375	302.5449218749998	-838.3737182617188	70.00266265869143	405.4741210937499	-1093.243896484375	527.52490234375	209.7210083007811	-949.9417114257814	530.01220703125	501.8274841308592	-1285.334228515625	257.8209228515625	214.5302429199217	-910.0078735351564	201.8147735595703	483.7052001953124	256.7200012207031	0.07899999618532701	396.4200134277344	-254.2699890136719	-0.2560999989509441	231.3000030517578	-853.6425170898438	2.42696905853022e-14	396.3541259765624	0	0	0	0	0	0	0	0	0	0	0	0	-1043.75341796875	666.9689331054688	311.3270263671873	-1031.958374023438	667.6080322265625	412.6208190917967	-1129.332153320312	374.4910888671875	245.4714050292967	-900.4954833984375	397.2540283203125	458.9850769042968	-1127.641845703125	369.6502075195312	297.4644165039061	-900.0797119140625	393.3491821289062	406.3645019531249	-0.6400604844093323	2.129985570907593	0.06803780049085596	256.7200012207031	0.07899999618532701	396.4200134277344	256.7200012207031	0.07899999618532701	396.4200134277344	256.7200012207031	0.07899999618532701	396.4200134277344	-254.2699890136719	-0.2560999989509441	231.3000030517578	-254.2699890136719	-0.2560999989509441	231.3000030517578	-254.2699890136719	-0.2560999989509441	231.3000030517578	-853.6425170898438	2.42696905853022e-14	396.3541259765624	-902.1748046875	280.8951416015625	409.8722839355468	-254.2699890136719	-0.2560999989509441	231.3000030517578	-17.4094123840332	-6.477060794830322	-2.713035106658937	-17.4094123840332	6.477060794830322	2.713035106658933	-36.00565719604492	-12.52327060699463	-0.7587590217590369	0.893398463726044	-12.38763332366943	-3.116233825683593	-1.934444069862365	1.206337094306945	-6.20350170135498	-41.31003570556641	5.37305736541748	-1.125844120979314	-24.37653732299805	-22.37792778015137	2.993763685226439	-11.48698329925537	-40.48247146606445	1.519807338714601	-4.609156608581543	16.30596923828125	-1.148053288459779	11.41661834716797	15.51541328430176	2.623790502548218	1.590277422822226e-14	2.385416091881692e-15	-7.951386796473757e-16	1.292100374279324e-15	-4.522677313073303e-31	-7.386092571706662e-15	-10.08407688140869	0	-1.234943247517298e-15	6.461692810058594	0	7.913291416911723e-16	3.407041788101197	5.81511402130127	-4.404850959777832	3.407041788101196	-5.81511402130127	4.404850959777832	16.77358627319336	3.41031289100647	3.032733678817751	16.77358627319336	-3.41031289100647	-3.032733678817747	3.034280061721799	-12.24730968475342	21.11447906494141	-47.19867324829102	7.951387114111131e-15	-7.370447771046895e-15	-10.20352745056152	114.2775802612305	6.404521942138664	26.01591873168945	1.040490865707398	13.71863555908203	-67.41022491455078	-8.24161214534741e-13	-7.46023293749335e-15	-0.989634871482849	87.77317810058594	-0.9051232337951715	-0.818986415863037	2.84233832359314	-1.185647487640381	-0.8189864158630372	-2.84233832359314	1.185647487640381	-2.360827207565308	-2.780632734298706	3.384433031082153	-2.360827207565307	2.780632734298706	-3.384433031082154	2.821291674999187e-33	0.3762324750423431	-2.30375948147946e-17	-9.949550459438768e-34	-0.1326819211244583	8.124424500489474e-18	-3.176926194206937e-34	-0.04236580058932304	2.594157104251476e-18	5.930650267777224e-34	0.0790880024433136	-4.842743452158102e-18	-1.148658889871477e-33	-0.1531790494918823	9.379511632833385e-18	-1.303011836172311e-34	-0.01737627387046814	1.06398990882883e-18	nan	nan	nan	nan	nan	nan	nan	nan	nan	nan	nan	nan	2.529680394554166e-34	0.03373447433114052	-2.065640800527489e-18	9.322343837868597e-35	0.01243178267031908	-7.612271427450899e-19	3.645396961858797e-35	0.004861307796090841	-2.976692516076361e-19	-1.580567910400285e-34	-0.02107761427760124	1.290631642936346e-18	2.631942852705648e-36	0.0003509819216560572	-2.149144434573388e-20	-5.724899484935552e-36	-0.0007634421926923096	4.674735188073369e-20	256.7200012207031	0.07899999618532701	396.4200134277344	-254.2699890136719	-0.2560999989509441	231.3000030517578	-902.1748046875	280.8951416015625	409.8722839355468	-0.6400604844093323	2.129985332489014	0.06803780049085596	1.765413284301758	-5.494874954223633	0.4517950415611273	-0.08439092338085173	1.053197860717773	-0.09215594083070763	0.6877626776695251	-7.01805305480957	-0.06261492520570704	0.2556104362010956	0.005455284845083951	-0.01591991074383256	-7.569845199584961	0.9801959991455078	0.1710147708654394	0	0	0	0	0	0	0	0	0	0	0	0	0	0	0	0	0	0	nan	nan	nan	nan	nan	nan	nan	nan	nan	nan	nan	nan	-0.1493747234344482	0.5677981972694397	-0.1857701390981675	-0.1691045612096787	0.5722693800926208	0.1581272929906845	0.08766372501850128	0.2355375736951828	-0.04781349003314972	0.2048196643590927	0.1447174102067947	0.08023896813392641	-0.01758884452283382	0.06029949337244034	-0.01269959658384324	-0.0199532974511385	0.0386526919901371	0.05417370796203613	256.7200012207031	0.07899999618532701	396.4200134277344	0	0	0	-254.2699890136719	-0.2560999989509441	231.3000030517578	0	0	0	-902.1748046875	280.8951416015625	409.8722839355468	0	0	0	244.7663726806641	10.40955924987793	9.928641319274933	-540.592529296875	18.65041160583495	-206.1614990234376	-21.00005722045898	3.477679014205932	-13.04924011230469	-21.55331802368163	7.808556079864498	-65.05055999755859	10.62814044952393	-0.8794463276863098	0.8779551982879652	224.5297393798828	6.013403415679932	0.9303426742553983	nan	nan	nan	nan	nan	nan	nan	nan	nan	nan	nan	nan	nan	nan	nan	nan	nan	nan	-29.63403129577637	-2.153323650360106	22.72082901000976	7.424982070922847	-9.748047828674315	34.02813339233398	5.100454330444336	0.007223409600556077	2.941515922546387	25.91494178771973	-0.06982120126485761	10.52902698516846	-0.49534410238266	1.233220615456043e-16	0.3750658631324768	-1.284706473350525	1.158970864787255e-15	2.94389820098877	0	0	0	0	0	0	0	0	0	
43	0.28	-909.8900756835938	1260.207763671875	308.5008850097655	-1035.634643554688	1249.35009765625	276.1635131835936	-912.9993286132812	1263.215209960938	422.8929138183592	-1050.266845703125	1263.174194335938	442.4486389160155	-1085.903930664062	1114.644775390625	362.4178161621092	-1115.004272460938	965.4042358398438	360.8932495117186	-970.8399658203125	1070.179321289062	356.7712402343748	-944.0966186523438	1014.887817382812	353.6780395507811	-1111.532348632812	1037.391967773438	444.9606323242186	-1041.5537109375	1095.365966796875	223.8331756591795	-1063.83642578125	912.857666015625	143.6074371337889	-1052.802734375	854.6865234375	111.0280609130858	-1020.104064941406	794.013916015625	75.14890289306624	-948.5321655273438	701.88330078125	32.79279708862289	-885.4718627929688	728.2424926757812	54.31258392333969	-869.9650268554688	694.006591796875	2.128835439681858	-1038.502563476562	1081.275512695312	496.3976440429686	-1083.125366210938	984.5592041015625	538.0280761718748	-1123.680419921875	836.7392578125	572.0852050781249	-1054.276733398438	700.5263671875	572.0688476562499	-1032.103271484375	665.7457275390625	570.9954223632811	-951.1029663085939	631.6654663085938	582.6362915039061	-1111.731201171875	768.1207885742188	368.1939697265623	-992.9890747070312	724.36474609375	243.9219512939451	-966.4650268554689	728.0740356445312	469.2130737304686	-1069.573974609375	536.226318359375	215.5822753906248	-1146.421020507812	441.8712463378906	234.962692260742	-1081.85302734375	435.5298156738281	226.0542907714842	-1248.08447265625	256.922119140625	229.6185302734373	-1367.163818359375	246.3812866210938	259.9272155761717	-1254.384765625	159.3960571289063	237.142120361328	-1389.611328125	135.0121459960938	315.8034057617186	-1274.327026367188	47.82720947265626	277.6349487304686	-936.1434326171876	534.4059448242188	492.901885986328	-940.1781616210939	419.5739440917969	474.4434204101561	-894.7506103515626	442.4531860351563	471.8135681152343	-884.4799804687501	229.2385406494141	475.8251953124999	-948.5152587890625	125.0879745483399	456.9012145996093	-810.6038208007812	166.1454315185547	460.432891845703	-885.9293212890625	40.26918029785158	389.0647888183593	-736.9072265625	54.41582489013675	430.986358642578	-1076.337890625	757.01171875	367.4347534179686	-1071.50732421875	755.4721069335938	366.8914184570311	-1076.933959960938	756.9283447265625	362.3713989257811	-1061.138305664062	805.6146240234375	364.8450622558592	-968.1271362304689	700.8483276367188	561.3288574218749	-1303.091430664062	30.89417076110841	250.0145416259764	-756.184326171875	34.39493560791018	456.9296874999999	-1120.014282226562	377.2275390625	239.0781402587889	-885.9742431640625	386.3213195800781	458.7680053710936	-1363.949829101562	120.557113647461	268.032501220703	-852.5007934570312	57.38592529296878	439.3547973632811	-1116.752685546875	370.4140625	290.7744140624999	-895.830322265625	381.1679382324219	407.1857910156249	-1342.567749023438	116.7247695922852	300.8887634277342	-836.3869018554688	69.36525726318362	405.367462158203	-1082.244506835938	527.3236694335938	209.6837158203123	-940.4642333984376	530.9263916015625	502.5664672851561	-1275.971557617188	261.0322570800781	213.5449829101561	-904.1461791992189	203.0177307128907	484.4126892089843	256.7200012207031	0.07899999618532701	396.4200134277344	-254.2699890136719	-0.2560999989509441	231.3000030517578	-851.9989013671875	2.430436549070531e-14	396.9204101562499	0	0	0	0	0	0	0	0	0	0	0	0	-1034.2314453125	667.0206298828125	312.4777526855467	-1022.925720214844	668.1920776367188	413.8225708007811	-1116.573120117188	373.0669555664062	244.6352081298826	-890.260498046875	397.9899291992188	459.3994140624999	-1114.842895507812	367.8599243164062	296.5915222167968	-890.402587890625	394.0831298828125	406.7774963378905	-0.6334083080291748	2.140948534011841	0.06420578062534311	256.7200012207031	0.07899999618532701	396.4200134277344	256.7200012207031	0.07899999618532701	396.4200134277344	256.7200012207031	0.07899999618532701	396.4200134277344	-254.2699890136719	-0.2560999989509441	231.3000030517578	-254.2699890136719	-0.2560999989509441	231.3000030517578	-254.2699890136719	-0.2560999989509441	231.3000030517578	-851.9989013671875	2.430436549070531e-14	396.9204101562499	-899.3985595703125	250.0079040527344	406.2560729980468	-254.2699890136719	-0.2560999989509441	231.3000030517578	-17.36612701416016	-6.125130176544189	-2.911227226257326	-17.36612701416016	6.125130176544189	2.911227226257322	-39.75314331054688	-11.73764705657959	-1.205926060676579	-0.5341544151306148	-12.45617580413818	-3.268039226531982	-2.560747623443603	0.7960336208343501	-6.707403182983398	-41.43768692016602	5.63041353225708	-0.652508914470678	-26.58659744262695	-22.48244094848633	2.894058942794798	-12.98301696777344	-40.07600021362305	1.89890205860138	-2.333832979202271	17.47036170959473	-0.6263137459754958	11.37387466430664	14.92321586608887	2.497729778289795	1.590277422822226e-14	2.385416091881692e-15	1.590277359294757e-15	-3.279947046927987e-15	-1.192708045940846e-15	-3.416611577802733e-15	-7.893933296203613	0	-9.667280143878471e-16	6.459873676300049	0	7.9110636205771e-16	3.102053403854371	5.58245325088501	-4.711451053619385	3.10205340385437	-5.58245325088501	4.711451053619385	16.89376258850098	3.245923280715942	3.394065618515017	16.89376258850098	-3.245923280715942	-3.394065618515012	3.543745040893552	-12.70535182952881	20.80571937561035	-47.5687141418457	2.806839613164747e-12	-9.00604206992636e-15	-10.41350746154785	114.5150909423828	6.481884956359855	25.77774238586426	1.429344058036805	13.91739845275879	-67.06832122802734	-3.449709051403516e-12	-9.406208537549652e-15	-0.9293456077575682	87.97641754150391	-0.9769247174263056	-0.6602382063865661	2.61274528503418	-1.293274521827698	-0.6602382063865663	-2.61274528503418	1.293274521827698	-2.199404478073121	-2.785245180130005	3.567731618881225	-2.19940447807312	2.785245180130005	-3.567731618881226	3.353813295361786e-33	0.4472467303276062	-2.738596383624112e-17	-1.110123618440856e-33	-0.1480401903390884	9.064847262196478e-18	-3.788773901578634e-34	-0.05052507668733597	3.093768672091028e-18	3.837190636440103e-34	0.05117073655128479	-3.133303936377169e-18	-3.497869102413484e-33	-0.4664572477340698	2.856226876883063e-17	4.040344091419046e-34	0.05387988314032555	-3.299191321311656e-18	nan	nan	nan	nan	nan	nan	nan	nan	nan	nan	nan	nan	2.449694086961103e-34	0.03266781941056252	-2.000327023813458e-18	1.065925420463343e-34	0.01421461533755064	-8.703941587121133e-19	3.12803735441744e-35	0.004171384498476982	-2.554236337036361e-19	-1.843607596147498e-34	-0.02458537183701992	1.505419846302696e-18	2.233676340127215e-36	0.0002978712145704776	-1.823935147409349e-20	-4.302554625426908e-36	-0.000573765835724771	3.513302470902234e-20	256.7200012207031	0.07899999618532701	396.4200134277344	-254.2699890136719	-0.2560999989509441	231.3000030517578	-899.3985595703125	250.0078887939453	406.2561035156249	-0.6334083080291748	2.14094877243042	0.06420578062534311	1.571304559707642	-4.73374605178833	0.3322047591209416	-0.05928079411387442	1.071629405021667	-0.09926286339759835	0.3578614890575409	-6.205033779144287	-0.01613742113113361	0.2695181369781494	0.0008452762267552304	-0.01930438354611393	-6.677767276763916	1.172886490821838	0.1291382610797873	0	0	0	0	0	0	0	0	0	0	0	0	0	0	0	0	0	0	nan	nan	nan	nan	nan	nan	nan	nan	nan	nan	nan	nan	-0.1470488905906677	0.5601956248283386	-0.1926175504922867	-0.1707834899425507	0.5792645812034607	0.1565217971801757	0.08739076554775238	0.2299759089946747	-0.05094533786177635	0.2067983895540237	0.1504533290863037	0.08005790412425996	-0.01728867366909981	0.05885200947523117	-0.01153891161084176	-0.01971814781427384	0.04030263423919678	0.05537812784314156	256.7200012207031	0.07899999618532701	396.4200134277344	0	0	0	-254.2699890136719	-0.2560999989509441	231.3000030517578	0	0	0	-899.3985595703125	250.0078887939453	406.2561035156249	0	0	0	249.2278594970703	11.46556377410889	1.424387693405181	-382.3002319335938	7.512285709381096	-109.4981918334961	-20.32002258300781	2.736445903778075	-17.28084754943848	-122.0538558959961	4.518348693847652	-79.7774124145508	11.80345249176025	-0.9031882286071777	0.8914531469345107	211.1821746826172	2.376256227493286	-1.127037048339818	nan	nan	nan	nan	nan	nan	nan	nan	nan	nan	nan	nan	nan	nan	nan	nan	nan	nan	-28.85592842102051	-2.303102493286131	24.16791725158691	6.724625110626216	-9.610503196716307	34.11732864379883	4.659180164337158	7.511291914871444e-05	3.120436191558838	26.45420265197754	-0.07335095107555326	10.40416240692139	-0.4361179172992707	3.177165864343968e-16	0.2937489748001098	-1.259431600570679	1.752642192314723e-15	3.049168348312378	0	0	0	0	0	0	0	0	0	
